<svg xmlns="http://www.w3.org/2000/svg" xmlns:xlink="http://www.w3.org/1999/xlink" version="1.1" width="256" height="256" viewBox="0 0 256 256" xml:space="preserve">

<defs>
</defs>
<g style="stroke: none; stroke-width: 0; stroke-dasharray: none; stroke-linecap: butt; stroke-linejoin: miter; stroke-miterlimit: 10; fill: none; fill-rule: nonzero; opacity: 1;" transform="translate(1.4065934065934016 1.4065934065934016) scale(2.81 2.81)" >
	<path d="M 41.893 89.129 c -10.356 0 -18.781 -8.425 -18.781 -18.781 v -3.171 c 0 -0.828 0.671 -1.5 1.5 -1.5 s 1.5 0.672 1.5 1.5 v 3.171 c 0 8.702 7.079 15.781 15.781 15.781 s 15.781 -7.079 15.781 -15.781 V 50.161 c 0 -6.659 5.418 -12.077 12.077 -12.077 s 12.076 5.418 12.076 12.077 v 5.272 c 0 0.828 -0.672 1.5 -1.5 1.5 s -1.5 -0.672 -1.5 -1.5 v -5.272 c 0 -5.005 -4.071 -9.077 -9.076 -9.077 s -9.077 4.072 -9.077 9.077 v 20.187 C 60.674 80.704 52.249 89.129 41.893 89.129 z" style="stroke: none; stroke-width: 1; stroke-dasharray: none; stroke-linecap: butt; stroke-linejoin: miter; stroke-miterlimit: 10; fill: rgb(0,0,0); fill-rule: nonzero; opacity: 1;" transform=" matrix(1 0 0 1 0 0) " stroke-linecap="round" />
	<path d="M 44.698 41.084 c -0.001 0 -0.003 0 -0.005 0 c -0.828 -0.002 -1.498 -0.676 -1.495 -1.505 l 0.095 -30.023 c 0 -3.132 -2.552 -5.685 -5.689 -5.685 c -0.829 0 -1.5 -0.671 -1.5 -1.5 s 0.671 -1.5 1.5 -1.5 c 4.792 0 8.689 3.898 8.689 8.69 l -0.095 30.028 C 46.195 40.416 45.524 41.084 44.698 41.084 z" style="stroke: none; stroke-width: 1; stroke-dasharray: none; stroke-linecap: butt; stroke-linejoin: miter; stroke-miterlimit: 10; fill: rgb(0,0,0); fill-rule: nonzero; opacity: 1;" transform=" matrix(1 0 0 1 0 0) " stroke-linecap="round" />
	<path d="M 4.527 41.084 c -0.826 0 -1.498 -0.668 -1.5 -1.495 L 2.932 9.566 c 0 -4.796 3.898 -8.695 8.689 -8.695 c 0.829 0 1.5 0.671 1.5 1.5 s -0.671 1.5 -1.5 1.5 c -3.137 0 -5.689 2.553 -5.689 5.69 l 0.095 30.018 c 0.002 0.829 -0.667 1.502 -1.495 1.505 C 4.53 41.084 4.528 41.084 4.527 41.084 z" style="stroke: none; stroke-width: 1; stroke-dasharray: none; stroke-linecap: butt; stroke-linejoin: miter; stroke-miterlimit: 10; fill: rgb(0,0,0); fill-rule: nonzero; opacity: 1;" transform=" matrix(1 0 0 1 0 0) " stroke-linecap="round" />
	<path d="M 29.236 68.677 h -9.248 c -0.829 0 -1.5 -0.672 -1.5 -1.5 v -3.75 C 7.704 60.664 0 50.828 0 39.584 c 0 -0.829 0.671 -1.5 1.5 -1.5 h 6.527 c 0.829 0 1.5 0.671 1.5 1.5 c 0 8.318 6.767 15.086 15.085 15.086 s 15.086 -6.768 15.086 -15.086 c 0 -0.829 0.671 -1.5 1.5 -1.5 h 6.526 c 0.828 0 1.5 0.671 1.5 1.5 c 0 11.244 -7.704 21.08 -18.488 23.843 v 3.75 C 30.736 68.005 30.065 68.677 29.236 68.677 z M 21.489 65.677 h 6.248 v -3.444 c 0 -0.713 0.502 -1.328 1.202 -1.47 c 9.524 -1.935 16.565 -10.082 17.235 -19.679 h -3.536 C 41.872 50.357 34.08 57.67 24.612 57.67 S 7.354 50.357 6.588 41.084 H 3.052 c 0.67 9.597 7.711 17.744 17.235 19.679 c 0.699 0.142 1.202 0.757 1.202 1.47 V 65.677 z" style="stroke: none; stroke-width: 1; stroke-dasharray: none; stroke-linecap: butt; stroke-linejoin: miter; stroke-miterlimit: 10; fill: rgb(0,0,0); fill-rule: nonzero; opacity: 1;" transform=" matrix(1 0 0 1 0 0) " stroke-linecap="round" />
	<path d="M 80.327 73.279 c -5.333 0 -9.672 -4.339 -9.672 -9.673 s 4.339 -9.673 9.672 -9.673 c 5.334 0 9.673 4.339 9.673 9.673 S 85.661 73.279 80.327 73.279 z M 80.327 56.934 c -3.679 0 -6.672 2.993 -6.672 6.673 s 2.993 6.673 6.672 6.673 c 3.68 0 6.673 -2.993 6.673 -6.673 S 84.007 56.934 80.327 56.934 z" style="stroke: none; stroke-width: 1; stroke-dasharray: none; stroke-linecap: butt; stroke-linejoin: miter; stroke-miterlimit: 10; fill: rgb(0,0,0); fill-rule: nonzero; opacity: 1;" transform=" matrix(1 0 0 1 0 0) " stroke-linecap="round" />
	<circle cx="80.327" cy="63.607" r="3.317" style="stroke: none; stroke-width: 1; stroke-dasharray: none; stroke-linecap: butt; stroke-linejoin: miter; stroke-miterlimit: 10; fill: rgb(0,0,0); fill-rule: nonzero; opacity: 1;" transform="  matrix(1 0 0 1 0 0) "/>
</g>
</svg>