<svg id="Layer_1" data-name="Layer 1" xmlns="http://www.w3.org/2000/svg" viewBox="0 0 368 44"><defs><style>.cls-1{fill:#1ebee7;}</style></defs><path class="cls-1" d="M.67,3A2.08,2.08,0,0,1,2.73.9h34.1A2.1,2.1,0,0,1,39,2.9v9.92a2.14,2.14,0,0,1-.86,1.72L15.25,31.32a.61.61,0,0,0,.33,1.12H36.83a2.1,2.1,0,0,1,2.17,2V41a2.1,2.1,0,0,1-2.08,2.12h-34a2.09,2.09,0,0,1-2.21-2V30.79a2.14,2.14,0,0,1,.86-1.71l23.29-17a.61.61,0,0,0,.08-.86.63.63,0,0,0-.45-.22H2.78A2.1,2.1,0,0,1,.67,8.93V3Z"/><path class="cls-1" d="M85.14,22A21.85,21.85,0,1,1,63.29.15h0A21.85,21.85,0,0,1,85.14,22ZM63.32,10.49A11.51,11.51,0,1,0,74.8,22v0h0A11.48,11.48,0,0,0,63.35,10.49h0Z"/><path class="cls-1" d="M132.38,22A21.85,21.85,0,1,1,110.53.15h0A21.84,21.84,0,0,1,132.38,22ZM110.57,10.49A11.51,11.51,0,1,0,122,22.08V22A11.49,11.49,0,0,0,110.57,10.49Z"/><path class="cls-1" d="M200.72,20V40.9a2,2,0,0,1-1.9,2.1h-6a2,2,0,0,1-2-2V20.41c0-2.2-.62-9.31-8.46-9.31-5,0-8.7,3.81-8.76,9.12V40.93A2,2,0,0,1,171.66,43h-6.07a2,2,0,0,1-2-2V20c-.06-2.66-1.06-8.93-8.46-8.93-4.6,0-8.51,4-8.7,8.93V40.9a2,2,0,0,1-1.9,2.1h-6.1a2,2,0,0,1-2-2V3.75a2,2,0,0,1,1.93-2.07h6.07a2,2,0,0,1,2,2V4.89a.58.58,0,0,0,.56.58.57.57,0,0,0,.44-.2,13.52,13.52,0,0,1,10-4.27,15,15,0,0,1,12.31,6,.54.54,0,0,0,.75.12l.12-.12a15.61,15.61,0,0,1,12.56-6C194,1,200.72,8.32,200.72,20Z"/><path class="cls-1" d="M225.86,43.09A21.1,21.1,0,0,1,204.76,22V20.64A21.18,21.18,0,0,1,225.22.92h.69a20.84,20.84,0,0,1,17.86,10,1.84,1.84,0,0,1,.13,1.72,1.73,1.73,0,0,1-1.27,1l-6.28,1.49H236a2,2,0,0,1-1.5-.67,11.45,11.45,0,0,0-8.66-4,10.84,10.84,0,0,0-1.51.1,11.59,11.59,0,0,0-9.91,10.11,11.26,11.26,0,0,0,2.81,8.89,11.49,11.49,0,0,0,16.22,1h0a11.1,11.1,0,0,0,1-1.06,2,2,0,0,1,1.43-.69,1.83,1.83,0,0,1,.4.05l6.29,1.42a1.9,1.9,0,0,1,1.3,1.15,1.67,1.67,0,0,1-.16,1.59A20.92,20.92,0,0,1,225.86,43.09Z"/><path class="cls-1" d="M322.9,1.94a20.37,20.37,0,0,0-5.65-.77,15.08,15.08,0,0,0-10.08,4l-.32.28a.59.59,0,0,1-.83,0,.63.63,0,0,1-.17-.43V3.69a1.9,1.9,0,0,0-1.79-2h-6.38a1.93,1.93,0,0,0-1.95,1.89V41a1.91,1.91,0,0,0,1.94,1.88H304A1.87,1.87,0,0,0,305.88,41V22.34a11.42,11.42,0,0,1,11.37-11.45,12.1,12.1,0,0,1,4.41.86,1.79,1.79,0,0,0,.72.15,1.9,1.9,0,0,0,1.87-1.9V3.77A1.79,1.79,0,0,0,322.9,1.94Z"/><path class="cls-1" d="M287.6,1.67h-6.29a1.65,1.65,0,0,0-1.61,1.61V5.22a.58.58,0,0,1-.54.62h0a.58.58,0,0,1-.46-.18l-.8-.7A15.12,15.12,0,0,0,268,1.07a20.92,20.92,0,0,0-.91,41.83H268a14.85,14.85,0,0,0,9.93-4l.79-.69a.59.59,0,0,1,.83,0,.63.63,0,0,1,.17.43v2.61a1.65,1.65,0,0,0,1.61,1.61h6.36a1.66,1.66,0,0,0,1.61-1.61v-38a1.64,1.64,0,0,0-1.69-1.59h0ZM268,33.48A11.5,11.5,0,1,1,279.47,22V22h0A11.54,11.54,0,0,1,268,33.48Z"/><path class="cls-1" d="M346.35,43.06a21.43,21.43,0,0,1-2.27-.12,21.08,21.08,0,0,1,2.29-42A14.8,14.8,0,0,1,348,1a21,21,0,0,1,19.43,22.46,8.06,8.06,0,0,1-.1,1,1.61,1.61,0,0,1-1.61,1.4H336.43a1,1,0,0,0-.91.52,1.17,1.17,0,0,0-.06,1.12,12.22,12.22,0,0,0,16.43,5.37h0a13.43,13.43,0,0,0,1.73-1.07,1.57,1.57,0,0,1,.89-.28h.34L361.53,33a1.63,1.63,0,0,1,1.17,1.13,1.5,1.5,0,0,1-.31,1.46A21,21,0,0,1,346.35,43.06Zm0-33.33a12.1,12.1,0,0,0-10.92,6.77,1.06,1.06,0,0,0,.44,1.43h0a1,1,0,0,0,.54.12h19.84a1.07,1.07,0,0,0,1-1.57,12.2,12.2,0,0,0-10.89-6.76Z"/></svg>